<svg width="70" height="70" viewBox="0 0 70 70" fill="none" xmlns="http://www.w3.org/2000/svg">
<g clip-path="url(#clip0_16_1336)">
<path d="M45.9375 47.0312C58.6228 47.0312 68.9062 36.7478 68.9062 24.0625C68.9062 11.3772 58.6228 1.09375 45.9375 1.09375C33.2522 1.09375 22.9688 11.3772 22.9688 24.0625C22.9688 36.7478 33.2522 47.0312 45.9375 47.0312Z" fill="#EBD557"/>
<path d="M45.9375 42.6562C56.2065 42.6562 64.5312 34.3315 64.5312 24.0625C64.5312 13.7935 56.2065 5.46875 45.9375 5.46875C35.6685 5.46875 27.3438 13.7935 27.3438 24.0625C27.3438 34.3315 35.6685 42.6562 45.9375 42.6562Z" fill="#FCEA81"/>
<path d="M47.0312 20.7812H44.8438C43.9735 20.7812 43.1389 20.4355 42.5236 19.8202C41.9082 19.2048 41.5625 18.3702 41.5625 17.5C41.5625 16.6298 41.9082 15.7952 42.5236 15.1798C43.1389 14.5645 43.9735 14.2188 44.8438 14.2188H52.5C53.0802 14.2188 53.6366 13.9883 54.0468 13.578C54.457 13.1678 54.6875 12.6114 54.6875 12.0312C54.6875 11.4511 54.457 10.8947 54.0468 10.4845C53.6366 10.0742 53.0802 9.84375 52.5 9.84375H48.125V5.46875H43.75V9.93125C41.8465 10.2211 40.1222 11.2176 38.9205 12.722C37.7189 14.2264 37.1282 16.1284 37.2661 18.0488C37.4041 19.9693 38.2606 21.7673 39.665 23.0845C41.0693 24.4017 42.9184 25.1414 44.8438 25.1562H47.0312C47.9015 25.1562 48.7361 25.502 49.3514 26.1173C49.9668 26.7327 50.3125 27.5673 50.3125 28.4375C50.3125 29.3077 49.9668 30.1423 49.3514 30.7577C48.7361 31.373 47.9015 31.7188 47.0312 31.7188H39.375C38.7948 31.7188 38.2384 31.9492 37.8282 32.3595C37.418 32.7697 37.1875 33.3261 37.1875 33.9062C37.1875 34.4864 37.418 35.0428 37.8282 35.453C38.2384 35.8633 38.7948 36.0938 39.375 36.0938H43.75V40.4688H48.125V36.0062C50.0285 35.7164 51.7528 34.7199 52.9545 33.2155C54.1561 31.7111 54.7468 29.8091 54.6089 27.8887C54.4709 25.9682 53.6144 24.1702 52.21 22.853C50.8057 21.5358 48.9566 20.7961 47.0312 20.7812Z" fill="#D7986C"/>
<path d="M41.5625 49.2188H40.4688C41.339 49.2188 42.1736 49.5645 42.7889 50.1798C43.4043 50.7952 43.75 51.6298 43.75 52.5C43.75 53.3702 43.4043 54.2048 42.7889 54.8202C42.1736 55.4355 41.339 55.7812 40.4688 55.7812H39.375C40.2452 55.7812 41.0798 56.127 41.6952 56.7423C42.3105 57.3577 42.6562 58.1923 42.6562 59.0625C42.6562 59.9327 42.3105 60.7673 41.6952 61.3827C41.0798 61.998 40.2452 62.3438 39.375 62.3438H38.2812C39.1515 62.3438 39.9861 62.6895 40.6014 63.3048C41.2168 63.9202 41.5625 64.7548 41.5625 65.625C41.5625 66.4952 41.2168 67.3298 40.6014 67.9452C39.9861 68.5605 39.1515 68.9062 38.2812 68.9062H19.6875L12.0312 66.7188V47.0312C15.3125 47.0312 17.5 42.6562 17.5 42.6562L21.875 27.3438C21.875 27.3438 27.3438 27.3438 27.3438 33.9062L26.25 42.6562H41.5625C42.4327 42.6562 43.2673 43.002 43.8827 43.6173C44.498 44.2327 44.8438 45.0673 44.8438 45.9375C44.8438 46.8077 44.498 47.6423 43.8827 48.2577C43.2673 48.873 42.4327 49.2188 41.5625 49.2188Z" fill="#E7CEA0"/>
<path d="M1.09375 44.8438H12.0312V68.9062H1.09375V44.8438Z" fill="#7BACE6"/>
<path d="M45.9375 45.9375C45.9375 44.7772 45.4766 43.6644 44.6561 42.8439C43.8356 42.0235 42.7228 41.5625 41.5625 41.5625H27.4859L28.4375 34.0375C28.4429 33.9939 28.4429 33.9498 28.4375 33.9063C28.4375 27.8469 24.15 26.25 21.875 26.25C21.6295 26.2409 21.3881 26.3148 21.1897 26.4596C20.9913 26.6045 20.8474 26.8119 20.7812 27.0485L16.4062 42.2406C15.6713 43.6897 14.5314 44.8942 13.125 45.7078V44.8438C13.125 44.5537 13.0098 44.2755 12.8046 44.0704C12.5995 43.8652 12.3213 43.75 12.0312 43.75H1.09375C0.803669 43.75 0.52547 43.8652 0.320352 44.0704C0.115234 44.2755 0 44.5537 0 44.8438L0 68.9063C0 69.1963 0.115234 69.4745 0.320352 69.6797C0.52547 69.8848 0.803669 70 1.09375 70H12.0312C12.3213 70 12.5995 69.8848 12.8046 69.6797C13.0098 69.4745 13.125 69.1963 13.125 68.9063V68.1735L19.3922 70C19.4899 70.0167 19.5898 70.0167 19.6875 70H38.2812C39.1099 69.9883 39.9181 69.7416 40.6119 69.2884C41.3057 68.8353 41.8566 68.1944 42.2003 67.4404C42.5441 66.6864 42.6667 65.8502 42.5538 65.0293C42.4408 64.2083 42.0971 63.4363 41.5625 62.8031C42.1043 62.477 42.5689 62.0374 42.9245 61.5144C43.28 60.9915 43.5179 60.3977 43.6219 59.774C43.7258 59.1502 43.6933 58.5114 43.5266 57.9014C43.3599 57.2914 43.063 56.7248 42.6562 56.2406C43.198 55.9145 43.6627 55.4749 44.0182 54.9519C44.3737 54.429 44.6117 53.8352 44.7156 53.2115C44.8196 52.5877 44.7871 51.9489 44.6204 51.3389C44.4537 50.7289 44.1567 50.1623 43.75 49.6781C44.4081 49.2983 44.9558 48.7536 45.3394 48.0977C45.723 47.4418 45.9291 46.6973 45.9375 45.9375ZM10.9375 67.8125H2.1875V45.9375H10.9375V67.8125ZM38.2812 67.8125H19.8406L13.125 65.8985V47.9938C16.4062 47.2391 18.3859 43.3344 18.4734 43.1485C18.5037 43.0848 18.5292 43.019 18.55 42.9516L22.6734 28.536C23.9531 28.8203 26.2281 29.8813 26.25 33.8406L25.1562 42.525C25.1376 42.6777 25.1513 42.8326 25.1965 42.9796C25.2417 43.1266 25.3175 43.2624 25.4187 43.3781C25.5225 43.4962 25.6504 43.5905 25.7938 43.6547C25.9373 43.7189 26.0929 43.7514 26.25 43.75H41.5625C42.1427 43.75 42.6991 43.9805 43.1093 44.3907C43.5195 44.801 43.75 45.3574 43.75 45.9375C43.75 46.5177 43.5195 47.0741 43.1093 47.4843C42.6991 47.8945 42.1427 48.125 41.5625 48.125H36.0938C35.8037 48.125 35.5255 48.2402 35.3204 48.4454C35.1152 48.6505 35 48.9287 35 49.2188C35 49.5088 35.1152 49.787 35.3204 49.9922C35.5255 50.1973 35.8037 50.3125 36.0938 50.3125H40.4688C41.0489 50.3125 41.6053 50.543 42.0155 50.9532C42.4258 51.3635 42.6562 51.9199 42.6562 52.5C42.6562 53.0802 42.4258 53.6366 42.0155 54.0468C41.6053 54.457 41.0489 54.6875 40.4688 54.6875H35C34.7099 54.6875 34.4317 54.8027 34.2266 55.0079C34.0215 55.213 33.9062 55.4912 33.9062 55.7813C33.9062 56.0713 34.0215 56.3495 34.2266 56.5547C34.4317 56.7598 34.7099 56.875 35 56.875H39.375C39.9552 56.875 40.5116 57.1055 40.9218 57.5157C41.332 57.926 41.5625 58.4824 41.5625 59.0625C41.5625 59.6427 41.332 60.1991 40.9218 60.6093C40.5116 61.0195 39.9552 61.25 39.375 61.25H33.9062C33.6162 61.25 33.338 61.3652 33.1329 61.5704C32.9277 61.7755 32.8125 62.0537 32.8125 62.3438C32.8125 62.6338 32.9277 62.912 33.1329 63.1172C33.338 63.3223 33.6162 63.4375 33.9062 63.4375H38.2812C38.8614 63.4375 39.4178 63.668 39.828 64.0782C40.2383 64.4885 40.4688 65.0449 40.4688 65.625C40.4688 66.2052 40.2383 66.7616 39.828 67.1718C39.4178 67.582 38.8614 67.8125 38.2812 67.8125Z" fill="#252525"/>
<path d="M14.2188 16.4062H15.3125V17.5C15.3125 17.7901 15.4277 18.0683 15.6329 18.2734C15.838 18.4785 16.1162 18.5938 16.4062 18.5938C16.6963 18.5938 16.9745 18.4785 17.1796 18.2734C17.3848 18.0683 17.5 17.7901 17.5 17.5V16.4062H18.5938C18.8838 16.4062 19.162 16.291 19.3671 16.0859C19.5723 15.8808 19.6875 15.6026 19.6875 15.3125C19.6875 15.0224 19.5723 14.7442 19.3671 14.5391C19.162 14.334 18.8838 14.2188 18.5938 14.2188H17.5V13.125C17.5 12.8349 17.3848 12.5567 17.1796 12.3516C16.9745 12.1465 16.6963 12.0312 16.4062 12.0312C16.1162 12.0312 15.838 12.1465 15.6329 12.3516C15.4277 12.5567 15.3125 12.8349 15.3125 13.125V14.2188H14.2188C13.9287 14.2188 13.6505 14.334 13.4454 14.5391C13.2402 14.7442 13.125 15.0224 13.125 15.3125C13.125 15.6026 13.2402 15.8808 13.4454 16.0859C13.6505 16.291 13.9287 16.4062 14.2188 16.4062Z" fill="#252525"/>
<path d="M59.0625 54.6875H57.9688V53.5938C57.9688 53.3037 57.8535 53.0255 57.6484 52.8204C57.4433 52.6152 57.1651 52.5 56.875 52.5C56.5849 52.5 56.3067 52.6152 56.1016 52.8204C55.8965 53.0255 55.7812 53.3037 55.7812 53.5938V54.6875H54.6875C54.3974 54.6875 54.1192 54.8027 53.9141 55.0079C53.709 55.213 53.5938 55.4912 53.5938 55.7812C53.5938 56.0713 53.709 56.3495 53.9141 56.5546C54.1192 56.7598 54.3974 56.875 54.6875 56.875H55.7812V57.9688C55.7812 58.2588 55.8965 58.537 56.1016 58.7421C56.3067 58.9473 56.5849 59.0625 56.875 59.0625C57.1651 59.0625 57.4433 58.9473 57.6484 58.7421C57.8535 58.537 57.9688 58.2588 57.9688 57.9688V56.875H59.0625C59.3526 56.875 59.6308 56.7598 59.8359 56.5546C60.041 56.3495 60.1562 56.0713 60.1562 55.7812C60.1562 55.4912 60.041 55.213 59.8359 55.0079C59.6308 54.8027 59.3526 54.6875 59.0625 54.6875Z" fill="#252525"/>
<path d="M45.9375 9.54734e-06C39.5557 9.54734e-06 33.4353 2.53516 28.9227 7.04775C24.4101 11.5603 21.875 17.6807 21.875 24.0625C21.875 24.3526 21.9902 24.6308 22.1954 24.8359C22.4005 25.041 22.6787 25.1563 22.9688 25.1563C23.2588 25.1563 23.537 25.041 23.7421 24.8359C23.9473 24.6308 24.0625 24.3526 24.0625 24.0625C24.0638 19.9147 25.2443 15.8528 27.4664 12.3504C29.6884 8.84805 32.8605 6.04961 36.6125 4.28147C40.3645 2.51333 44.542 1.84837 48.6576 2.36412C52.7732 2.87988 56.6573 4.55511 59.857 7.19443C63.0567 9.83375 65.4401 13.3284 66.7292 17.2708C68.0183 21.2131 68.16 25.4408 67.1377 29.4606C66.1155 33.4805 63.9714 37.1268 60.9556 39.9745C57.9398 42.8221 54.1765 44.7536 50.1047 45.5438C49.8146 45.5713 49.5474 45.713 49.3617 45.9376C49.1761 46.1622 49.0873 46.4513 49.1148 46.7414C49.1424 47.0315 49.2841 47.2988 49.5087 47.4844C49.7333 47.67 50.0224 47.7588 50.3125 47.7313H50.5203C56.4496 46.6471 61.7561 43.3772 65.3901 38.5682C69.0241 33.7592 70.7209 27.7615 70.1448 21.7614C69.5687 15.7614 66.7618 10.1961 62.2791 6.16639C57.7965 2.1367 51.9648 -0.0638598 45.9375 9.54734e-06Z" fill="#252525"/>
<path d="M55.7812 28.4375C55.7812 26.1169 54.8594 23.8913 53.2184 22.2503C51.5775 20.6094 49.3519 19.6875 47.0312 19.6875H44.8438C44.2636 19.6875 43.7072 19.457 43.297 19.0468C42.8867 18.6366 42.6562 18.0802 42.6562 17.5C42.6562 16.9198 42.8867 16.3634 43.297 15.9532C43.7072 15.543 44.2636 15.3125 44.8438 15.3125H52.5C53.3702 15.3125 54.2048 14.9668 54.8202 14.3514C55.4355 13.7361 55.7812 12.9015 55.7812 12.0312C55.7812 11.161 55.4355 10.3264 54.8202 9.71106C54.2048 9.0957 53.3702 8.75 52.5 8.75H49.2188V5.46875C49.2188 5.17867 49.1035 4.90047 48.8984 4.69535C48.6933 4.49023 48.4151 4.375 48.125 4.375H43.75C43.4599 4.375 43.1817 4.49023 42.9766 4.69535C42.7715 4.90047 42.6562 5.17867 42.6562 5.46875V9.03438C40.6 9.57177 38.8096 10.8392 37.6194 12.6C36.4293 14.3608 35.9206 16.4946 36.1885 18.603C36.4564 20.7114 37.4825 22.6501 39.0753 24.0573C40.668 25.4645 42.7184 26.2439 44.8438 26.25H47.0312C47.6114 26.25 48.1678 26.4805 48.578 26.8907C48.9883 27.3009 49.2188 27.8573 49.2188 28.4375C49.2188 29.0177 48.9883 29.5741 48.578 29.9843C48.1678 30.3945 47.6114 30.625 47.0312 30.625H39.375C38.5048 30.625 37.6702 30.9707 37.0548 31.5861C36.4395 32.2014 36.0938 33.036 36.0938 33.9062C36.0938 34.7765 36.4395 35.6111 37.0548 36.2264C37.6702 36.8418 38.5048 37.1875 39.375 37.1875H42.6562V40.4688C42.6562 40.7588 42.7715 41.037 42.9766 41.2421C43.1817 41.4473 43.4599 41.5625 43.75 41.5625H48.125C48.4151 41.5625 48.6933 41.4473 48.8984 41.2421C49.1035 41.037 49.2188 40.7588 49.2188 40.4688V36.9031C51.0959 36.4184 52.7589 35.3241 53.9467 33.7918C55.1345 32.2596 55.7798 30.3762 55.7812 28.4375ZM47.9719 34.9234C47.7091 34.9606 47.4687 35.092 47.2957 35.2933C47.1226 35.4945 47.0286 35.7518 47.0312 36.0172V39.375H44.8438V36.0938C44.8438 35.8037 44.7285 35.5255 44.5234 35.3204C44.3183 35.1152 44.0401 35 43.75 35H39.375C39.0849 35 38.8067 34.8848 38.6016 34.6796C38.3965 34.4745 38.2812 34.1963 38.2812 33.9062C38.2812 33.6162 38.3965 33.338 38.6016 33.1329C38.8067 32.9277 39.0849 32.8125 39.375 32.8125H47.0312C48.1916 32.8125 49.3044 32.3516 50.1248 31.5311C50.9453 30.7106 51.4062 29.5978 51.4062 28.4375C51.4062 27.2772 50.9453 26.1644 50.1248 25.3439C49.3044 24.5234 48.1916 24.0625 47.0312 24.0625H44.8438C43.1949 24.0481 41.6119 23.4135 40.4096 22.285C39.2074 21.1565 38.4741 19.6167 38.3555 17.9721C38.2369 16.3274 38.7419 14.6984 39.7698 13.4091C40.7978 12.1199 42.2734 11.2648 43.9031 11.0141C44.1659 10.9769 44.4063 10.8455 44.5793 10.6442C44.7524 10.443 44.8464 10.1857 44.8438 9.92031V6.5625H47.0312V9.84375C47.0312 10.1338 47.1465 10.412 47.3516 10.6171C47.5567 10.8223 47.8349 10.9375 48.125 10.9375H52.5C52.7901 10.9375 53.0683 11.0527 53.2734 11.2579C53.4785 11.463 53.5938 11.7412 53.5938 12.0312C53.5938 12.3213 53.4785 12.5995 53.2734 12.8046C53.0683 13.0098 52.7901 13.125 52.5 13.125H44.8438C43.6834 13.125 42.5706 13.5859 41.7502 14.4064C40.9297 15.2269 40.4688 16.3397 40.4688 17.5C40.4688 18.6603 40.9297 19.7731 41.7502 20.5936C42.5706 21.4141 43.6834 21.875 44.8438 21.875H47.0312C48.6801 21.8894 50.2631 22.524 51.4654 23.6525C52.6676 24.781 53.4009 26.3208 53.5195 27.9654C53.6381 29.6101 53.1331 31.2391 52.1052 32.5284C51.0772 33.8176 49.6016 34.6727 47.9719 34.9234Z" fill="#252525"/>
</g>
<defs>
<clipPath id="clip0_16_1336">
<rect width="70" height="70" fill="white"/>
</clipPath>
</defs>
</svg>
