<svg width="72" height="72" viewBox="0 0 72 72" fill="none" xmlns="http://www.w3.org/2000/svg">
<rect x="18.3213" y="17.3574" width="30.8571" height="33.75" fill="#64432C"/>
<path d="M36 0C16.1484 0 0 16.1499 0 36C0 55.8501 16.1484 72 36 72C55.8516 72 72 55.8501 72 36C72 16.1499 55.8516 0 36 0ZM50.3115 37.2613L29.3116 50.7613C29.0655 50.9209 28.7813 51 28.5 51C28.254 51 28.0049 50.9384 27.7823 50.817C27.2988 50.5533 27 50.0493 27 49.5V22.5C27 21.9507 27.2988 21.4467 27.7823 21.183C28.2569 20.9223 28.8516 20.9384 29.3116 21.2387L50.3115 34.7387C50.7393 35.0141 51 35.4902 51 36C51 36.5098 50.7393 36.9858 50.3115 37.2613Z" fill="white"/>
</svg>
