<svg width="80" height="80" viewBox="0 0 80 80" fill="none" xmlns="http://www.w3.org/2000/svg">
<g clip-path="url(#clip0_12_18)">
<path d="M29.0038 59.043L27.7021 56.3269C27.6425 56.2024 27.549 56.0974 27.4321 56.0238L27.4156 56.0134C27.1901 55.8712 26.9052 55.863 26.6716 55.9918C25.6676 56.5456 24.9373 57.0772 24.4512 57.4781L21.9405 52.6826C21.8441 52.4986 21.674 52.364 21.4725 52.3126C21.2714 52.2613 21.0574 52.2981 20.8847 52.4137L15.3249 56.1347C15.1125 56.277 14.9896 56.5196 15.0007 56.775C15.0118 57.0304 15.1553 57.2614 15.3794 57.3848L19.4756 59.6377V64.1626C19.4756 64.4254 19.6165 64.6681 19.8447 64.7984C19.9573 64.8627 20.0825 64.8948 20.2078 64.8948C20.3365 64.8948 20.4653 64.8608 20.5801 64.7931L28.7158 59.99C29.0428 59.7968 29.1679 59.3856 29.0038 59.043Z" fill="#B32425"/>
<path d="M64.675 56.1345L59.1152 52.4135C58.9425 52.2978 58.7286 52.2612 58.5274 52.3124C58.3259 52.3637 58.1557 52.4982 58.0594 52.6825L55.5488 57.478C55.0626 57.077 54.3322 56.5454 53.3282 55.9916C53.0948 55.8627 52.8099 55.871 52.5842 56.0132L52.5677 56.0237C52.4509 56.0973 52.3574 56.2023 52.2977 56.3267L50.9961 59.0428C50.832 59.3854 50.9571 59.7966 51.2842 59.9898L59.4198 64.7928C59.5346 64.8606 59.6632 64.8946 59.7921 64.8946C59.9173 64.8946 60.0426 64.8624 60.1552 64.7982C60.3834 64.6678 60.5243 64.4251 60.5243 64.1623V59.6374L64.6205 57.3845C64.8445 57.2613 64.9881 57.0302 64.9992 56.7747C65.0104 56.5194 64.8875 56.2767 64.675 56.1345Z" fill="#B32425"/>
<path d="M29.0038 59.0428L27.7021 56.3267C27.5847 56.0818 27.338 55.9219 27.0666 55.9113C27.0666 55.9113 27.0447 55.9105 27.0074 55.9105C26.8833 55.9105 26.7615 55.942 26.6529 56.0021C24.6381 57.1167 23.732 58.1386 23.6943 58.1815C23.5198 58.3811 23.4667 58.6594 23.5556 58.9093C23.6444 59.1591 23.8614 59.3413 24.1228 59.3856L28.2208 60.0812C28.2617 60.0881 28.3027 60.0915 28.3434 60.0915C28.5708 60.0915 28.7884 59.9854 28.9279 59.8001C29.0928 59.5815 29.1219 59.2896 29.0038 59.0428Z" fill="#8C1E23"/>
<path d="M56.3055 58.1815C56.2678 58.1386 55.3617 57.1168 53.3469 56.0021C53.2384 55.942 53.1165 55.9105 52.9924 55.9105C52.9554 55.9105 52.9334 55.9113 52.9334 55.9113C52.662 55.9217 52.4151 56.0817 52.2977 56.3267L50.9961 59.0428C50.8779 59.2895 50.9071 59.5815 51.0718 59.8C51.2116 59.9853 51.4289 60.0914 51.6563 60.0914C51.697 60.0914 51.738 60.088 51.7789 60.0811L55.8768 59.3855C56.1382 59.3411 56.3551 59.1589 56.4441 58.9092C56.5331 58.6594 56.48 58.381 56.3055 58.1815Z" fill="#8C1E23"/>
<path d="M25.7879 47.2763C25.6127 46.9145 25.1784 46.7616 24.815 46.9339C21.2578 48.6208 19.7146 50.401 19.6508 50.4758C19.4567 50.7032 19.4205 51.0258 19.559 51.2906L23.5968 59.0033C23.7084 59.2164 23.9184 59.3599 24.1571 59.3893C24.1868 59.3929 24.2163 59.3947 24.2458 59.3947C24.4538 59.3947 24.6547 59.3053 24.7946 59.148C24.7988 59.1433 25.2234 58.6706 26.1398 58.0375C26.9867 57.4524 28.4386 56.6071 30.5467 55.9019C30.784 55.8225 30.9641 55.6277 31.0248 55.3852C31.0854 55.1426 31.0181 54.8859 30.8463 54.7043C28.8595 52.6047 27.1575 50.1056 25.7879 47.2763Z" fill="#E93234"/>
<path d="M60.3492 50.4756C60.2854 50.4006 58.7421 48.6206 55.1851 46.9337C54.8216 46.7614 54.3876 46.9143 54.2123 47.2762C52.8424 50.1057 51.1404 52.6048 49.1536 54.704C48.9818 54.8855 48.9145 55.1424 48.9751 55.385C49.0359 55.6275 49.216 55.8225 49.4532 55.9017C51.5613 56.6069 53.0132 57.4522 53.8601 58.0372C54.7766 58.6703 55.2011 59.1431 55.2033 59.1454C55.3433 59.3055 55.5446 59.3957 55.7545 59.3957C55.7832 59.3957 55.812 59.394 55.8408 59.3906C56.0808 59.3621 56.2913 59.2173 56.4033 59.0031L60.4411 51.2904C60.5795 51.0257 60.5433 50.7031 60.3492 50.4756Z" fill="#E93234"/>
<path d="M60.3492 50.4756C60.2854 50.4006 58.7421 48.6206 55.1851 46.9337C54.8216 46.7614 54.3876 46.9143 54.2123 47.2762C52.8424 50.1057 51.1404 52.6048 49.1536 54.704C48.9818 54.8855 48.9145 55.1424 48.9751 55.385C49.0359 55.6275 49.216 55.8225 49.4532 55.9017C51.5613 56.6069 53.0132 57.4522 53.8601 58.0372C54.7766 58.6703 55.2011 59.1431 55.2033 59.1454C55.3433 59.3055 55.5446 59.3957 55.7545 59.3957C55.7832 59.3957 55.812 59.394 55.8408 59.3906C56.0808 59.3621 56.2913 59.2173 56.4033 59.0031L60.4411 51.2904C60.5795 51.0257 60.5433 50.7031 60.3492 50.4756Z" fill="#E93234"/>
<path d="M48.9749 55.385C48.9143 55.1424 48.9816 54.8857 49.1535 54.704C51.1404 52.6045 52.8424 50.1055 54.2119 47.2762C54.3871 46.9144 54.8214 46.7615 55.1848 46.9337C56.1297 47.3819 56.9312 47.8363 57.6019 48.2638C56.8626 49.7485 56.0389 51.143 55.1298 52.4387C54.0331 54.0018 52.8136 55.4232 51.4762 56.6994C50.8849 56.4279 50.2121 56.1557 49.453 55.9018C49.216 55.8225 49.0357 55.6275 48.9749 55.385Z" fill="#B32425"/>
<path d="M31.0251 55.385C31.0857 55.1424 31.0184 54.8857 30.8466 54.704C28.8597 52.6045 27.1576 50.1055 25.7881 47.2762C25.6129 46.9144 25.1786 46.7615 24.8152 46.9337C23.8703 47.3819 23.0688 47.8363 22.3981 48.2638C23.1375 49.7485 23.9611 51.143 24.8703 52.4387C25.967 54.0018 27.1865 55.4232 28.5239 56.6994C29.1152 56.4279 29.788 56.1557 30.5471 55.9018C30.7842 55.8225 30.9643 55.6275 31.0251 55.385Z" fill="#B32425"/>
<path d="M59.7491 23.2061C59.7136 22.8611 59.4409 22.5883 59.0959 22.5528C53.2682 21.9516 48.5183 20.0081 45.56 18.4837C42.3442 16.8265 40.4876 15.2909 40.4697 15.276C40.1978 15.0488 39.8023 15.0488 39.5304 15.276C39.4574 15.3371 32.0924 21.3987 20.9042 22.5529C20.5592 22.5885 20.2865 22.8612 20.251 23.2062C20.2193 23.514 19.4977 30.8437 21.4984 39.3799C22.6786 44.415 24.5684 48.8087 27.1155 52.4388C30.3152 56.9992 34.5592 60.3544 39.7293 62.411C39.8164 62.4456 39.9081 62.4629 40 62.4629C40.0918 62.4629 40.1836 62.4456 40.2706 62.411C45.4407 60.3544 49.6847 56.9992 52.8844 52.4388C55.4316 48.8086 57.3213 44.4151 58.5015 39.3799C60.5024 30.8436 59.7807 23.5139 59.7491 23.2061Z" fill="#F5BA3D"/>
<path d="M59.7491 23.2062C59.7136 22.8611 59.4409 22.5884 59.0959 22.5528C58.4944 22.4908 57.9052 22.4137 57.3275 22.325C57.4613 24.8944 57.5365 30.9386 55.9468 37.7217C54.7284 42.9197 52.7775 47.4555 50.1479 51.2031C46.9064 55.8231 42.626 59.2439 37.4236 61.3766C38.1704 61.7515 38.9389 62.0966 39.7293 62.4111C39.8164 62.4456 39.9081 62.4629 40 62.4629C40.0918 62.4629 40.1836 62.4456 40.2706 62.4111C45.4407 60.3544 49.6847 56.9993 52.8844 52.4388C55.4316 48.8087 57.3213 44.4151 58.5015 39.38C60.5024 30.8436 59.7807 23.514 59.7491 23.2062Z" fill="#F2A325"/>
<path d="M55.218 26.8993C55.1824 26.5543 54.9098 26.2815 54.5648 26.246C46.1178 25.3746 40.5247 20.788 40.4697 20.7422C40.1978 20.5151 39.8023 20.5151 39.5304 20.7422C39.4752 20.7884 33.9057 25.3722 25.4353 26.246C25.0903 26.2816 24.8177 26.5543 24.7821 26.8993C24.7579 27.135 24.2054 32.747 25.7361 39.2778C26.6402 43.1352 28.089 46.5025 30.0421 49.2863C32.4995 52.7885 35.7588 55.3654 39.7293 56.9449C39.8164 56.9794 39.9081 56.9967 40 56.9967C40.0918 56.9967 40.1836 56.9794 40.2706 56.9449C44.2413 55.3654 47.5005 52.7886 49.9578 49.2863C51.9111 46.5025 53.3598 43.1352 54.2638 39.2778C55.7947 32.7468 55.2422 27.135 55.218 26.8993Z" fill="#FFDB57"/>
<path d="M37.8821 45.0653C37.3596 45.0653 36.8585 44.8578 36.489 44.4883L32.0081 40.0074C31.2387 39.2381 31.2387 37.9906 32.0081 37.2212C32.7774 36.4518 34.0248 36.4518 34.7942 37.2212L37.8821 40.3091L45.4508 32.7403C46.2202 31.971 47.4675 31.9709 48.2369 32.7402C49.0063 33.5096 49.0063 34.757 48.2369 35.5264L39.2751 44.4881C38.9058 44.8577 38.4045 45.0653 37.8821 45.0653Z" fill="#00B76C"/>
</g>
<rect x="1.5" y="1.5" width="77" height="77" stroke="#321E1E" stroke-width="3"/>
<defs>
<clipPath id="clip0_12_18">
<rect width="50" height="50" fill="white" transform="translate(15 15)"/>
</clipPath>
</defs>
</svg>
