<svg width="80" height="80" viewBox="0 0 80 80" fill="none" xmlns="http://www.w3.org/2000/svg">
<path d="M50.5099 20.1618C50.4339 20.0165 50.3201 19.8942 50.1804 19.8079C50.0406 19.7217 49.8802 19.6745 49.7158 19.6714L42.0084 19.8176C39.9962 19.844 38.0747 20.6565 36.6572 22.0802L17.2635 41.4108C16.4545 42.2175 16 43.3114 16 44.452C16 45.5925 16.4545 46.6864 17.2635 47.4931C22.9254 53.0075 22.6665 53.1624 23.3052 53.1452C23.4246 53.1393 23.5415 53.1087 23.6485 53.0554C23.7555 53.0021 23.8502 52.9272 23.9266 52.8355L50.389 21.1253C50.5042 20.9955 50.5773 20.834 50.5989 20.6621C50.6204 20.4902 50.5894 20.3158 50.5099 20.1618Z" fill="url(#paint0_linear_12_74)"/>
<path d="M48.7232 20.1531L41.3006 22.278C39.3699 22.8335 37.7303 24.1132 36.7262 25.8482L23.0117 49.5147C22.4394 50.5027 22.2844 51.6767 22.5806 52.7786C22.8768 53.8805 23.6 54.82 24.5911 55.3905L38.789 63.5632C39.8334 64.1396 41.5596 64.5783 41.784 63.4427L49.8107 21.1252C49.8353 20.9819 49.823 20.8347 49.775 20.6973C49.727 20.56 49.6448 20.437 49.5362 20.3399C49.4276 20.2429 49.296 20.1748 49.1539 20.1421C49.0117 20.1094 48.8635 20.1132 48.7232 20.1531Z" fill="url(#paint1_linear_12_74)"/>
<path d="M61.825 28.0077L54.5923 20.5146C54.1897 20.0983 53.7071 19.7672 53.1732 19.541C52.6394 19.3148 52.0652 19.1982 51.4852 19.1982C50.9051 19.1982 50.3309 19.3148 49.7971 19.541C49.2632 19.7672 48.7806 20.0983 48.378 20.5146L41.1453 28.0077C39.7532 29.4473 38.9738 31.3678 38.9703 33.3673V60.6986C38.9703 61.8394 39.425 62.9335 40.2343 63.7402C41.0436 64.5469 42.1412 65 43.2858 65H59.6845C60.8291 65 61.9267 64.5469 62.736 63.7402C63.5453 62.9335 64 61.8394 64 60.6986V33.3673C63.9965 31.3678 63.2171 29.4473 61.825 28.0077Z" fill="url(#paint2_linear_12_74)"/>
<path d="M57.0952 15C57.0952 15.0516 56.4307 19.8864 52.5985 22.1146C52.3107 21.8693 51.9499 21.7252 51.5718 21.7044C51.1937 21.6836 50.8192 21.7874 50.506 21.9997C50.1929 22.212 49.9585 22.521 49.8389 22.8792C49.7194 23.2373 49.7213 23.6247 49.8444 23.9817C49.9675 24.3387 50.205 24.6454 50.5202 24.8546C50.8354 25.0637 51.2109 25.1638 51.5888 25.1393C51.9667 25.1148 52.326 24.9672 52.6114 24.7191C52.8968 24.4709 53.0925 24.1362 53.1682 23.7663C57.9583 21.2199 58.8214 15.4818 58.8214 15.2065L57.0952 15Z" fill="url(#paint3_linear_12_74)"/>
<path d="M48.1191 38.0642C47.4909 38.0642 46.8768 38.2499 46.3545 38.5978C45.8322 38.9456 45.4251 39.4401 45.1847 40.0185C44.9443 40.597 44.8814 41.2336 45.0039 41.8477C45.1265 42.4618 45.429 43.0259 45.8732 43.4687C46.3174 43.9114 46.8833 44.2129 47.4994 44.3351C48.1156 44.4572 48.7542 44.3946 49.3346 44.1549C49.9149 43.9153 50.411 43.5095 50.76 42.9889C51.109 42.4683 51.2953 41.8562 51.2953 41.2301C51.2953 40.3904 50.9606 39.5852 50.365 38.9915C49.7693 38.3978 48.9615 38.0642 48.1191 38.0642ZM48.1191 42.6753C47.8323 42.6753 47.552 42.5906 47.3135 42.4318C47.0751 42.273 46.8892 42.0472 46.7795 41.7832C46.6697 41.5191 46.641 41.2285 46.697 40.9481C46.7529 40.6677 46.891 40.4102 47.0938 40.2081C47.2966 40.006 47.5549 39.8683 47.8362 39.8126C48.1175 39.7568 48.409 39.7854 48.674 39.8948C48.9389 40.0042 49.1654 40.1894 49.3247 40.4271C49.484 40.6648 49.5691 40.9442 49.5691 41.2301C49.5691 41.6134 49.4163 41.981 49.1444 42.252C48.8725 42.5231 48.5036 42.6753 48.1191 42.6753Z" fill="url(#paint4_linear_12_74)"/>
<path d="M54.014 46.5898C53.3858 46.5898 52.7717 46.7755 52.2494 47.1234C51.7271 47.4713 51.32 47.9657 51.0796 48.5442C50.8392 49.1227 50.7763 49.7592 50.8989 50.3733C51.0214 50.9874 51.3239 51.5515 51.7681 51.9943C52.2123 52.4371 52.7783 52.7386 53.3944 52.8607C54.0105 52.9829 54.6491 52.9202 55.2295 52.6806C55.8099 52.441 56.3059 52.0352 56.6549 51.5146C57.0039 50.9939 57.1902 50.3818 57.1902 49.7557C57.1902 48.9161 56.8556 48.1108 56.2599 47.5171C55.6643 46.9234 54.8564 46.5898 54.014 46.5898ZM54.014 51.201C53.7272 51.201 53.4469 51.1162 53.2084 50.9574C52.97 50.7986 52.7841 50.5729 52.6744 50.3088C52.5646 50.0447 52.5359 49.7541 52.5919 49.4737C52.6478 49.1934 52.7859 48.9359 52.9887 48.7337C53.1915 48.5316 53.4499 48.394 53.7311 48.3382C54.0124 48.2824 54.3039 48.311 54.5689 48.4204C54.8339 48.5298 55.0603 48.7151 55.2196 48.9527C55.379 49.1904 55.464 49.4699 55.464 49.7557C55.4686 49.9484 55.4345 50.14 55.3637 50.3194C55.2929 50.4987 55.1868 50.6621 55.0517 50.8C54.9166 50.9379 54.7552 51.0474 54.577 51.1222C54.3988 51.197 54.2074 51.2355 54.014 51.2354V51.201Z" fill="url(#paint5_linear_12_74)"/>
<path d="M45.6322 51.4268L54.8347 38.6135L56.2381 39.6149L47.0356 52.4281L45.6322 51.4268Z" fill="url(#paint6_linear_12_74)"/>
<rect x="1.5" y="1.5" width="77" height="77" stroke="#321E1E" stroke-width="3"/>
<defs>
<linearGradient id="paint0_linear_12_74" x1="44.5545" y1="17.8218" x2="18.395" y2="50.7162" gradientUnits="userSpaceOnUse">
<stop stop-color="#FFC033"/>
<stop offset="1" stop-color="#EF8E2E"/>
</linearGradient>
<linearGradient id="paint1_linear_12_74" x1="53.8586" y1="20.0671" x2="29.9287" y2="60.6893" gradientUnits="userSpaceOnUse">
<stop stop-color="#CE7F20"/>
<stop offset="1" stop-color="#B2500D"/>
</linearGradient>
<linearGradient id="paint2_linear_12_74" x1="51.4852" y1="19.1984" x2="51.4852" y2="65" gradientUnits="userSpaceOnUse">
<stop stop-color="#FFC033"/>
<stop offset="1" stop-color="#EF8E2E"/>
</linearGradient>
<linearGradient id="paint3_linear_12_74" x1="49.759" y1="20.0671" x2="58.8128" y2="20.0671" gradientUnits="userSpaceOnUse">
<stop stop-color="#002237"/>
<stop offset="1" stop-color="#003352"/>
</linearGradient>
<linearGradient id="paint4_linear_12_74" x1="44.9429" y1="41.2301" x2="51.2953" y2="41.2301" gradientUnits="userSpaceOnUse">
<stop stop-color="#002237"/>
<stop offset="1" stop-color="#003352"/>
</linearGradient>
<linearGradient id="paint5_linear_12_74" x1="50.8378" y1="49.7557" x2="57.1902" y2="49.7557" gradientUnits="userSpaceOnUse">
<stop stop-color="#002237"/>
<stop offset="1" stop-color="#003352"/>
</linearGradient>
<linearGradient id="paint6_linear_12_74" x1="45.6349" y1="45.5126" x2="56.239" y2="45.5126" gradientUnits="userSpaceOnUse">
<stop stop-color="#002237"/>
<stop offset="1" stop-color="#003352"/>
</linearGradient>
</defs>
</svg>
