<svg width="80" height="80" viewBox="0 0 80 80" fill="none" xmlns="http://www.w3.org/2000/svg">
<path d="M39.9557 54.7047C50.9199 54.7047 59.8081 45.8165 59.8081 34.8524C59.8081 23.8882 50.9199 15 39.9557 15C28.9916 15 20.1033 23.8882 20.1033 34.8524C20.1033 45.8165 28.9916 54.7047 39.9557 54.7047Z" fill="#FFD15C"/>
<path d="M23.873 46.4666L17.0423 58.3071L25.0148 57.8839L28.6368 65L34.9557 54.0453C30.4281 52.874 26.5404 50.1477 23.873 46.4666Z" fill="#40596B"/>
<path d="M56.0778 46.4075C53.4301 50.0984 49.5423 52.8346 45.0246 54.0256L51.3632 65L54.9852 57.8839L62.9577 58.3071L56.0778 46.4075Z" fill="#40596B"/>
<path d="M39.9557 49.2421C47.903 49.2421 54.3455 42.7996 54.3455 34.8523C54.3455 26.9051 47.903 20.4626 39.9557 20.4626C32.0085 20.4626 25.5659 26.9051 25.5659 34.8523C25.5659 42.7996 32.0085 49.2421 39.9557 49.2421Z" fill="#F8B64C"/>
<path d="M49.8179 33.2973C50.2608 32.8642 50.0148 32.1063 49.4045 32.0177L43.7254 31.191C43.4793 31.1516 43.2726 31.004 43.1644 30.7776L40.625 25.6299C40.3494 25.0689 39.5522 25.0689 39.2766 25.6299L36.747 30.7776C36.6388 30.9941 36.4222 31.1516 36.186 31.191L30.5069 32.0177C29.8967 32.1063 29.6506 32.8642 30.0935 33.2973L34.1978 37.3032C34.375 37.4803 34.4537 37.7264 34.4144 37.9626L33.4498 43.6122C33.3415 44.2225 33.9911 44.6949 34.5423 44.3996L39.6211 41.7323C39.8376 41.6142 40.1033 41.6142 40.3199 41.7323L45.3986 44.3996C45.9498 44.6851 46.5896 44.2225 46.4911 43.6122L45.5167 37.9626C45.4774 37.7165 45.5561 37.4705 45.7333 37.3032L49.8179 33.2973Z" fill="white"/>
<rect x="1.5" y="1.5" width="77" height="77" stroke="#321E1E" stroke-width="3"/>
</svg>
