<svg width="80" height="80" viewBox="0 0 80 80" fill="none" xmlns="http://www.w3.org/2000/svg">
<path d="M15 35.6055H29.3788V38.5352H15V35.6055Z" fill="#FED843"/>
<path d="M17.9297 41.4648H28.3789V44.3945H17.9297V41.4648Z" fill="#FED843"/>
<path d="M20.8594 47.3242H29.3788V50.2539H20.8594V47.3242Z" fill="#FED843"/>
<path d="M27.4362 29.4086L29.311 27.1589L33.3838 30.5528L31.5089 32.8026L27.4362 29.4086Z" fill="#474F54"/>
<path d="M58.5438 30.5411L62.6218 27.1471L64.4966 29.3998L60.4186 32.7938L58.5438 30.5411Z" fill="#32393F"/>
<path d="M45.957 18.0273C43.5338 18.0273 41.5625 19.9986 41.5625 22.4219C41.5625 24.8451 43.5338 26.8164 45.957 26.8164C48.3803 26.8164 50.3516 24.8451 50.3516 22.4219C50.3516 19.9986 48.3803 18.0273 45.957 18.0273ZM45.957 23.8867C45.1488 23.8867 44.4922 23.2301 44.4922 22.4219C44.4922 21.6137 45.1488 20.957 45.957 20.957C46.7652 20.957 47.4219 21.6137 47.4219 22.4219C47.4219 23.2301 46.7652 23.8867 45.957 23.8867Z" fill="#474F54"/>
<path d="M50.3516 22.4219C50.3516 19.9986 48.3803 18.0273 45.957 18.0273V20.957C46.7652 20.957 47.4219 21.6137 47.4219 22.4219C47.4219 23.2301 46.7652 23.8867 45.957 23.8867V26.8164C48.3803 26.8164 50.3516 24.8451 50.3516 22.4219Z" fill="#32393F"/>
<path d="M45.957 61.9727C56.4742 61.9727 65 53.4468 65 42.9297C65 32.4125 56.4742 23.8867 45.957 23.8867C35.4399 23.8867 26.9141 32.4125 26.9141 42.9297C26.9141 53.4468 35.4399 61.9727 45.957 61.9727Z" fill="#474F54"/>
<path d="M65 42.9297C65 32.4297 56.457 23.8867 45.957 23.8867V61.9727C56.457 61.9727 65 53.4297 65 42.9297Z" fill="#32393F"/>
<path d="M45.957 59.043C54.8562 59.043 62.0703 51.8288 62.0703 42.9297C62.0703 34.0306 54.8562 26.8164 45.957 26.8164C37.0579 26.8164 29.8438 34.0306 29.8438 42.9297C29.8438 51.8288 37.0579 59.043 45.957 59.043Z" fill="#ECECF1"/>
<path d="M62.0703 42.9297C62.0703 34.0448 54.8419 26.8164 45.957 26.8164V59.043C54.8419 59.043 62.0703 51.8146 62.0703 42.9297Z" fill="#D8D8D8"/>
<path d="M45.957 29.7461H44.4922V43.6621L45.957 44.7607L55.6201 52.0077L56.4984 50.839C58.2266 48.5416 59.1406 45.8064 59.1406 42.9297C59.1406 35.6599 53.2269 29.7461 45.957 29.7461Z" fill="#FABE2C"/>
<path d="M56.4984 50.839C58.2266 48.5416 59.1406 45.8064 59.1406 42.9297C59.1406 35.6599 53.2269 29.7461 45.957 29.7461V44.7607L55.6201 52.0077L56.4984 50.839Z" fill="#FF9100"/>
<rect x="1.5" y="1.5" width="77" height="77" stroke="#321E1E" stroke-width="3"/>
</svg>
