<svg width="56" height="70" viewBox="0 0 56 70" fill="none" xmlns="http://www.w3.org/2000/svg">
<path fill-rule="evenodd" clip-rule="evenodd" d="M40.8424 69.3296C41.054 69.7625 41.5049 70.0256 41.9856 69.9981C42.4663 69.9706 42.8836 69.6573 43.0439 69.2029L46.0035 60.8286L54.4292 63.6352C54.886 63.7882 55.3906 63.6507 55.7075 63.2884C56.0244 62.9261 56.0938 62.4083 55.8821 61.9754L46.2534 42.2804C46.1135 41.9958 45.8672 41.7781 45.567 41.6753C45.2669 41.5724 44.938 41.5928 44.6534 41.7315L31.7614 48.0346C31.4768 48.1745 31.2592 48.4209 31.1551 48.721C31.0523 49.0212 31.0726 49.35 31.2125 49.6346L40.8424 69.3296Z" fill="#EF4438"/>
<path fill-rule="evenodd" clip-rule="evenodd" d="M12.9596 69.2029C13.1199 69.6573 13.5372 69.9706 14.0179 69.9981C14.4987 70.0256 14.9495 69.7625 15.1611 69.3296L24.791 49.6346C24.9309 49.35 24.9513 49.0212 24.8484 48.721C24.7444 48.4209 24.5267 48.1745 24.2421 48.0346L11.3501 41.7315C11.0655 41.5928 10.7366 41.5724 10.4365 41.6753C10.1363 41.7781 9.89 41.9958 9.75009 42.2804L0.121416 61.9754C-0.0902426 62.4083 -0.0208857 62.9261 0.296004 63.2884C0.612894 63.6507 1.11753 63.7882 1.57433 63.6352L10 60.8286L12.9596 69.2029Z" fill="#EF4438"/>
<path fill-rule="evenodd" clip-rule="evenodd" d="M54.3097 26.3079C54.3097 11.7883 42.5214 0 28.0018 0C13.4823 0 1.69397 11.7883 1.69397 26.3079C1.69397 40.8286 13.4823 52.6157 28.0018 52.6157C42.5214 52.6157 54.3097 40.8286 54.3097 26.3079Z" fill="#FEC110"/>
<path fill-rule="evenodd" clip-rule="evenodd" d="M48.5135 26.1261C48.5135 14.8053 39.3225 5.61432 28.0018 5.61432C16.681 5.61432 7.49121 14.8053 7.49121 26.1261C7.49121 37.4468 16.681 46.6378 28.0018 46.6378C39.3225 46.6378 48.5135 37.4468 48.5135 26.1261Z" fill="#FEFDE9"/>
<path fill-rule="evenodd" clip-rule="evenodd" d="M21.3998 22.6176C21.1905 20.8382 19.6742 19.4546 17.8374 19.4546C15.8572 19.4546 14.25 21.0618 14.25 23.0421C14.25 24.8549 15.5977 26.3557 17.3448 26.596L19.2389 34.6271C19.6216 36.2474 21.0661 37.3918 22.7307 37.3918H33.2957C34.9603 37.3918 36.406 36.2474 36.7875 34.6271L38.6039 26.9213C39.9934 26.4274 40.9907 25.1001 40.9907 23.5407C40.9907 21.5605 39.3836 19.9533 37.4033 19.9533C35.661 19.9533 34.2081 21.1969 33.884 22.8448L32.4239 23.2884L30.7414 19.976C31.27 19.3518 31.5893 18.5434 31.5893 17.6609C31.5893 15.6807 29.9821 14.0735 28.0018 14.0735C26.0216 14.0735 24.4144 15.6807 24.4144 17.6609C24.4144 18.5518 24.7397 19.3661 25.2766 19.9939C25.2766 19.9928 23.6024 23.2884 23.6024 23.2884L21.3998 22.6176Z" fill="#FEC110"/>
<path fill-rule="evenodd" clip-rule="evenodd" d="M8.78148 44.2642L0.121416 61.9753C-0.0902426 62.4082 -0.0208857 62.926 0.296004 63.2883C0.612895 63.6507 1.11753 63.7882 1.57433 63.6351L10 60.8286L12.9597 69.2028C13.1199 69.6572 13.5372 69.9705 14.0179 69.998C14.4987 70.0255 14.9495 69.7625 15.1611 69.3296L23.5199 52.2354C24.9776 52.4854 26.4747 52.6157 28.0018 52.6157C29.5288 52.6157 31.026 52.4854 32.4837 52.2354L40.8424 69.3296C41.0541 69.7625 41.5049 70.0255 41.9856 69.998C42.4663 69.9705 42.8836 69.6572 43.0439 69.2028L46.0035 60.8286L54.4292 63.6351C54.886 63.7882 55.3906 63.6507 55.7075 63.2883C56.0244 62.926 56.0938 62.4082 55.8821 61.9753L47.222 44.2642C51.6179 39.5622 54.3096 33.2472 54.3096 26.3079C54.3096 11.7883 42.5213 0 28.0018 0C13.4822 0 1.69391 11.7883 1.69391 26.3079C1.69391 33.2472 4.38568 39.5622 8.78148 44.2642ZM45.4188 46.0184C42.4328 48.6588 38.8442 50.6319 34.8872 51.7045L41.7393 65.7182L44.1392 58.9236C44.3569 58.309 45.0265 57.9825 45.6448 58.1882L52.4812 60.465L45.4188 46.0184ZM10.5848 46.0184L3.5223 60.465L10.3588 58.1882C10.977 57.9825 11.6466 58.309 11.8643 58.9236L14.2643 65.7182L21.1163 51.7045C17.1581 50.6331 13.5695 48.6588 10.5848 46.0184ZM11.3357 43.4546C15.6454 47.6447 21.5241 50.2241 28.0018 50.2241C41.2011 50.2241 51.918 39.5084 51.918 26.3079C51.918 13.1085 41.2011 2.39162 28.0018 2.39162C14.8024 2.39162 4.08553 13.1085 4.08553 26.3079C4.08553 32.7449 6.63381 38.59 10.7749 42.8914L10.7821 42.895C11.0344 43.0181 11.2233 43.219 11.3357 43.4546ZM48.5135 26.1261C48.5135 14.8053 39.3225 5.61434 28.0018 5.61434C16.681 5.61434 7.4912 14.8053 7.4912 26.1261C7.4912 37.4468 16.681 46.6379 28.0018 46.6379C39.3225 46.6379 48.5135 37.4468 48.5135 26.1261ZM46.1219 26.1261C46.1219 36.1267 38.0023 44.2462 28.0018 44.2462C18.0012 44.2462 9.88283 36.1267 9.88283 26.1261C9.88283 16.1255 18.0012 8.00596 28.0018 8.00596C38.0023 8.00596 46.1219 16.1255 46.1219 26.1261ZM21.3997 22.6176C21.1904 20.8382 19.6741 19.4547 17.8374 19.4547C15.8571 19.4547 14.2499 21.0618 14.2499 23.0421C14.2499 24.8549 15.5976 26.3557 17.3447 26.5961L19.2389 34.6271C19.6215 36.2474 21.0661 37.3918 22.7306 37.3918H33.2956C34.9602 37.3918 36.4059 36.2474 36.7874 34.6271L38.6038 26.9213C39.9934 26.4274 40.9907 25.1001 40.9907 23.5408C40.9907 21.5605 39.3835 19.9533 37.4032 19.9533C35.6609 19.9533 34.208 21.197 33.884 22.8448L32.4239 23.2884L30.7414 19.976C31.2699 19.3518 31.5892 18.5435 31.5892 17.6609C31.5892 15.6807 29.982 14.0735 28.0018 14.0735C26.0215 14.0735 24.4143 15.6807 24.4143 17.6609C24.4143 18.5518 24.7396 19.3662 25.2765 19.994C25.2765 19.9928 23.6024 23.2884 23.6024 23.2884L21.3997 22.6176ZM36.4466 25.649L34.4592 34.0782C34.3324 34.6188 33.8505 35.0002 33.2956 35.0002C30.5465 35.0002 25.4798 35.0002 22.7306 35.0002C22.1758 35.0002 21.6939 34.6188 21.5671 34.0782L19.4541 25.1168C19.307 24.4926 18.6936 24.0956 18.0646 24.2164C17.9904 24.2307 17.9151 24.2379 17.8374 24.2379C17.1773 24.2379 16.6416 23.7022 16.6416 23.0421C16.6416 22.382 17.1773 21.8463 17.8374 21.8463C18.4975 21.8463 19.0332 22.382 19.0332 23.0421C19.0332 23.1198 19.026 23.1975 19.0117 23.2717C18.8945 23.872 19.252 24.4639 19.8368 24.6421L23.8655 25.869C24.4203 26.0376 25.017 25.7841 25.2801 25.2663L27.8296 20.2487C28.113 19.6914 27.9181 19.0086 27.3835 18.6846C27.0379 18.4753 26.806 18.095 26.806 17.6609C26.806 17.0009 27.3417 16.4651 28.0018 16.4651C28.6619 16.4651 29.1976 17.0009 29.1976 17.6609C29.1976 18.0914 28.9692 18.4681 28.6284 18.6798C28.0998 19.0062 27.9097 19.6843 28.1919 20.2379L30.7462 25.2663C31.0092 25.7841 31.6059 26.0376 32.1608 25.869L35.3692 24.892C35.9085 24.7282 36.26 24.208 36.2122 23.646C36.2086 23.6113 36.2074 23.5754 36.2074 23.5408C36.2074 22.8807 36.7431 22.3449 37.4032 22.3449C38.0633 22.3449 38.599 22.8807 38.599 23.5408C38.599 24.165 38.1195 24.6792 37.5085 24.7318C36.9943 24.776 36.5662 25.1467 36.4466 25.649Z" fill="#252525"/>
</svg>
