<svg width="24" height="24" viewBox="0 0 24 24" fill="none" xmlns="http://www.w3.org/2000/svg">
<g clip-path="url(#clip0_4_44)">
<path d="M17.6126 15.5167C19.0651 13.5347 19.7156 11.0774 19.4341 8.63642C19.1526 6.19541 17.9598 3.95071 16.0943 2.35139C14.2288 0.752082 11.8283 -0.0838946 9.37289 0.0107151C6.91752 0.105325 4.58841 1.12354 2.85154 2.86166C1.11466 4.59978 0.0981135 6.92961 0.00526081 9.38505C-0.0875919 11.8405 0.750102 14.2404 2.35075 16.1048C3.9514 17.9691 6.19695 19.1603 8.63817 19.4401C11.0794 19.7199 13.5362 19.0676 15.5171 17.6137H15.5156C15.5606 17.6737 15.6086 17.7307 15.6626 17.7862L21.4376 23.5612C21.7189 23.8427 22.1005 24.0009 22.4984 24.001C22.8963 24.0011 23.2779 23.8432 23.5594 23.5619C23.8408 23.2807 23.9991 22.8991 23.9992 22.5012C23.9993 22.1033 23.8414 21.7217 23.5601 21.4402L17.7851 15.6652C17.7315 15.6109 17.6738 15.5608 17.6126 15.5152V15.5167ZM17.9996 9.7507C17.9996 10.8341 17.7862 11.9069 17.3716 12.9078C16.957 13.9088 16.3493 14.8182 15.5833 15.5843C14.8172 16.3504 13.9077 16.9581 12.9068 17.3727C11.9058 17.7873 10.833 18.0007 9.74964 18.0007C8.66623 18.0007 7.59344 17.7873 6.5925 17.3727C5.59156 16.9581 4.68209 16.3504 3.91601 15.5843C3.14992 14.8182 2.54223 13.9088 2.12763 12.9078C1.71303 11.9069 1.49964 10.8341 1.49964 9.7507C1.49964 7.56266 2.36883 5.46424 3.91601 3.91707C5.46318 2.36989 7.5616 1.5007 9.74964 1.5007C11.9377 1.5007 14.0361 2.36989 15.5833 3.91707C17.1304 5.46424 17.9996 7.56266 17.9996 9.7507Z" fill="#64432C"/>
</g>
<defs>
<clipPath id="clip0_4_44">
<rect width="24" height="24" fill="white"/>
</clipPath>
</defs>
</svg>
