<svg width="70" height="70" viewBox="0 0 70 70" fill="none" xmlns="http://www.w3.org/2000/svg">
<path d="M49.0293 13.9561H6.94154C6.29596 13.9561 5.77246 14.4796 5.77246 15.1252V39.6763H9.27971C10.571 39.6763 11.6179 40.723 11.6179 42.0145C11.6179 43.3058 10.5709 44.3527 9.27971 44.3527H5.77246V47.8599C5.77246 48.5055 6.29596 49.029 6.94154 49.029H50.1984V15.1252C50.1984 14.4796 49.6749 13.9561 49.0293 13.9561Z" fill="#B4E66E"/>
<path d="M64.2276 32.6619H50.1984V49.0293H68.9039V37.3382C68.9039 34.7556 66.8102 32.6619 64.2276 32.6619Z" fill="#FFDC64"/>
<path d="M50.1984 36.1691H62.8637C64.1552 36.1691 65.2019 37.2158 65.2019 38.5072V49.0291H50.1984V36.1691Z" fill="#FFC850"/>
<path d="M59.5512 18.6326H50.1984V23.309H63.0585V22.14C63.0585 20.2028 61.4882 18.6326 59.5512 18.6326Z" fill="#FFDC64"/>
<path d="M64.2276 32.6618L61.8893 23.309H50.1984V32.6618H64.2276Z" fill="#B4E6FF"/>
<path d="M64.2275 37.3381H68.904V42.0146H66.5658C65.2744 42.0146 64.2277 40.9679 64.2277 39.6764V37.3381H64.2275Z" fill="#F1F4FB"/>
<path d="M58.3821 40.8455C54.8586 40.8455 51.7931 42.7958 50.1984 45.674V49.0292H67.6541C67.0775 44.4168 63.1507 40.8455 58.3821 40.8455Z" fill="#E1A546"/>
<path d="M65.2017 43.8063V49.0293H67.654C67.403 47.021 66.5161 45.211 65.2017 43.8063Z" fill="#FFC850"/>
<path d="M58.382 56.0439C61.6105 56.0439 64.2276 53.4267 64.2276 50.1983C64.2276 46.9699 61.6105 44.3528 58.382 44.3528C55.1536 44.3528 52.5365 46.9699 52.5365 50.1983C52.5365 53.4267 55.1536 56.0439 58.382 56.0439Z" fill="#5B5D6E"/>
<path d="M54.8748 26.8163H62.7662L61.8894 23.309H50.1985V32.6618H53.7057V27.9853C53.7056 27.3398 54.2291 26.8163 54.8748 26.8163Z" fill="#9BD6FF"/>
<path d="M19.8017 40.8455C16.8496 40.8455 14.221 42.2165 12.5071 44.3528H9.27984H5.77246V47.86C5.77246 48.5056 6.29596 49.0291 6.94154 49.0291H50.1984V44.3526H27.0963C25.3824 42.2165 22.7539 40.8455 19.8017 40.8455Z" fill="#A0D755"/>
<path d="M19.8016 56.0439C23.03 56.0439 25.6471 53.4267 25.6471 50.1983C25.6471 46.9699 23.03 44.3528 19.8016 44.3528C16.5732 44.3528 13.9561 46.9699 13.9561 50.1983C13.9561 53.4267 16.5732 56.0439 19.8016 56.0439Z" fill="#5B5D6E"/>
<path d="M65.0997 31.6317L63.287 24.3808C63.7826 24.2755 64.1544 23.8358 64.1544 23.3091V22.14C64.1544 19.6016 62.0893 17.5366 59.5511 17.5366H51.2944V15.1252C51.2944 13.8761 50.2783 12.86 49.0293 12.86H6.94148C5.69242 12.86 4.67633 13.8761 4.67633 15.1252V35C4.67633 35.6053 5.16701 36.0961 5.7724 36.0961C6.37779 36.0961 6.86848 35.6054 6.86848 35V15.1252C6.86848 15.0849 6.90115 15.0522 6.94148 15.0522H49.0291C49.0695 15.0522 49.1021 15.0849 49.1021 15.1252V35.0003C49.1021 35.6055 49.5928 36.0964 50.1982 36.0964C50.8035 36.0964 51.2943 35.6057 51.2943 35.0003V33.7578H64.2236C64.2246 33.7578 64.2255 33.7581 64.2265 33.7581C64.2275 33.7581 64.2286 33.7579 64.2295 33.7579C65.8205 33.7589 67.1714 34.8033 67.6354 36.2422H64.2273C63.6221 36.2422 63.1313 36.7329 63.1313 37.3383V39.6765C63.1313 41.5702 64.6718 43.1107 66.5655 43.1107H67.8077V47.9332H64.9418C64.0004 45.2149 61.4162 43.2567 58.3818 43.2567C55.3473 43.2567 52.763 45.2148 51.8217 47.9332H51.294V39.6765C51.294 39.0712 50.8033 38.5804 50.1979 38.5804C49.5927 38.5804 49.1019 39.0711 49.1019 39.6765V47.9331H26.3617C25.4203 45.2147 22.8361 43.2566 19.8017 43.2566C16.7672 43.2566 14.1829 45.2147 13.2416 47.9331H6.94148C6.90115 47.9331 6.86848 47.9004 6.86848 47.86V45.4487H11.6179C12.2232 45.4487 12.714 44.9581 12.714 44.3527C12.714 43.7474 12.2233 43.2566 11.6179 43.2566H1.09607C0.49082 43.2566 0 43.7473 0 44.3527C0 44.9579 0.490684 45.4487 1.09607 45.4487H4.67647V47.86C4.67647 49.1091 5.69256 50.1252 6.94162 50.1252H12.8621C12.8618 50.1495 12.8602 50.1737 12.8602 50.1982C12.8602 54.0258 15.9742 57.1397 19.8017 57.1397C23.6291 57.1397 26.7431 54.0258 26.7431 50.1982C26.7431 50.1736 26.7415 50.1495 26.7412 50.1252H51.4422C51.4419 50.1495 51.4403 50.1737 51.4403 50.1982C51.4403 54.0258 54.5543 57.1397 58.3818 57.1397C62.2092 57.1397 65.3233 54.0258 65.3233 50.1982C65.3233 50.1736 65.3216 50.1495 65.3214 50.1252H68.9038C69.509 50.1252 69.9999 49.6345 69.9999 49.0291V37.338C70 34.4518 67.8703 32.0534 65.0997 31.6317ZM51.2944 24.405H61.0336L62.8238 31.5658H51.2944V24.405ZM59.5511 19.7287C60.8807 19.7287 61.9624 20.8104 61.9624 22.14V22.213H51.2944V19.7287H59.5511ZM19.8017 54.9478C17.1828 54.9478 15.0522 52.8173 15.0522 50.1983C15.0522 47.5794 17.1828 45.4489 19.8017 45.4489C22.4205 45.4489 24.5511 47.5794 24.5511 50.1983C24.5511 52.8173 22.4205 54.9478 19.8017 54.9478ZM58.3821 54.9478C55.7632 54.9478 53.6326 52.8173 53.6326 50.1983C53.6326 47.5794 55.7632 45.4489 58.3821 45.4489C61.0009 45.4489 63.1315 47.5794 63.1315 50.1983C63.1315 52.8173 61.0009 54.9478 58.3821 54.9478ZM66.5658 40.9186C65.8808 40.9186 65.3235 40.3613 65.3235 39.6763V38.4341H67.8079V40.9184H66.5658V40.9186Z" fill="#252525"/>
<path d="M19.8017 47.9332C18.5526 47.9332 17.5365 48.9493 17.5365 50.1983C17.5365 51.4474 18.5526 52.4635 19.8017 52.4635C21.0507 52.4635 22.0668 51.4474 22.0668 50.1983C22.0668 48.9493 21.0507 47.9332 19.8017 47.9332Z" fill="#252525"/>
<path d="M58.3821 47.9332C57.133 47.9332 56.1169 48.9493 56.1169 50.1983C56.1169 51.4474 57.133 52.4635 58.3821 52.4635C59.6312 52.4635 60.6473 51.4474 60.6473 50.1983C60.6473 48.9493 59.6312 47.9332 58.3821 47.9332Z" fill="#252525"/>
<path d="M28.0585 44.3528C28.0585 44.958 28.5492 45.4489 29.1545 45.4489H45.5218C46.1271 45.4489 46.6179 44.9582 46.6179 44.3528C46.6179 43.7475 46.1272 43.2567 45.5218 43.2567H29.1544C28.5492 43.2567 28.0585 43.7475 28.0585 44.3528Z" fill="#252525"/>
<path d="M3.43421 40.7724H17.4635C18.0687 40.7724 18.5595 40.2817 18.5595 39.6763C18.5595 39.0711 18.0689 38.5803 17.4635 38.5803H3.43421C2.82896 38.5803 2.33813 39.0709 2.33813 39.6763C2.33813 40.2817 2.82896 40.7724 3.43421 40.7724Z" fill="#252525"/>
<path d="M36.5632 23.7031L26.8163 33.4499L21.7458 28.3794C21.3177 27.9513 20.6237 27.9513 20.1958 28.3794C19.7677 28.8075 19.7677 29.5013 20.1958 29.9294L26.0414 35.7749C26.2553 35.989 26.5359 36.096 26.8163 36.096C27.0967 36.096 27.3772 35.989 27.5912 35.7749L38.1131 25.2531C38.5411 24.825 38.5411 24.1312 38.1131 23.7031C37.6853 23.2752 36.9912 23.2752 36.5632 23.7031Z" fill="#252525"/>
</svg>
